<svg xmlns="http://www.w3.org/2000/svg" viewBox="0 0 900 620" role="img" aria-label="Demo rendered apartment floor plan">
  <defs>
    <linearGradient id="floor" x1="0" x2="1" y1="0" y2="1">
      <stop offset="0" stop-color="#f8f1e7"/>
      <stop offset="1" stop-color="#d9c5a8"/>
    </linearGradient>
    <pattern id="wood" width="42" height="42" patternUnits="userSpaceOnUse">
      <rect width="42" height="42" fill="url(#floor)"/>
      <path d="M0 11h42M0 27h42" stroke="#c8ae8a" stroke-width="1" opacity=".55"/>
    </pattern>
  </defs>
  <rect width="900" height="620" fill="#eef2f7"/>
  <rect x="70" y="60" width="760" height="500" rx="18" fill="url(#wood)" stroke="#243041" stroke-width="12"/>
  <path d="M70 260h760M330 60v500M570 260v300M570 390h260" fill="none" stroke="#243041" stroke-width="10" stroke-linecap="round"/>
  <rect x="102" y="88" width="196" height="122" rx="18" fill="#f6f0e6" stroke="#d6c4aa" stroke-width="4"/>
  <rect x="122" y="113" width="156" height="72" rx="16" fill="#94a3b8"/>
  <circle cx="142" cy="149" r="18" fill="#f8fafc" opacity=".9"/>
  <circle cx="258" cy="149" r="18" fill="#f8fafc" opacity=".9"/>
  <rect x="112" y="315" width="185" height="154" rx="20" fill="#f5eee1" stroke="#d6c4aa" stroke-width="4"/>
  <rect x="132" y="348" width="105" height="78" rx="20" fill="#6b7280"/>
  <rect x="246" y="342" width="28" height="92" rx="12" fill="#e2e8f0"/>
  <rect x="373" y="92" width="160" height="120" rx="20" fill="#f8fafc" stroke="#d6c4aa" stroke-width="4"/>
  <rect x="390" y="112" width="126" height="52" rx="14" fill="#cbd5e1"/>
  <rect x="398" y="174" width="110" height="18" rx="9" fill="#94a3b8"/>
  <rect x="610" y="92" width="190" height="118" rx="20" fill="#f8fafc" stroke="#d6c4aa" stroke-width="4"/>
  <rect x="634" y="116" width="68" height="68" rx="14" fill="#e0f2fe"/>
  <rect x="718" y="116" width="48" height="68" rx="14" fill="#94a3b8"/>
  <rect x="606" y="420" width="112" height="104" rx="18" fill="#f8fafc" stroke="#d6c4aa" stroke-width="4"/>
  <circle cx="662" cy="472" r="34" fill="#86efac"/>
  <circle cx="445" cy="392" r="70" fill="#ffffff" stroke="#d6c4aa" stroke-width="4"/>
  <circle cx="445" cy="392" r="35" fill="#d6c4aa"/>
  <rect x="88" y="62" width="154" height="12" rx="6" fill="#7dd3fc"/>
  <rect x="650" y="548" width="115" height="12" rx="6" fill="#7dd3fc"/>
  <rect x="70" y="412" width="12" height="86" rx="6" fill="#7dd3fc"/>
  <rect x="818" y="138" width="12" height="74" rx="6" fill="#7dd3fc"/>
  <path d="M330 220c-50 0-88 40-88 88M570 340c-45 0-78 35-78 78M690 390c0-42 34-76 76-76" fill="none" stroke="#14b8a6" stroke-width="8" stroke-linecap="round"/>
</svg>
