<svg xmlns="http://www.w3.org/2000/svg" viewBox="0 0 900 620" role="img" aria-label="Demo apartment floor plan">
  <rect width="900" height="620" fill="#f8fafc"/>
  <rect x="70" y="60" width="760" height="500" rx="18" fill="#ffffff" stroke="#0f172a" stroke-width="12"/>
  <path d="M70 260h760M330 60v500M570 260v300M570 390h260" fill="none" stroke="#0f172a" stroke-width="10" stroke-linecap="round"/>
  <path d="M330 220c-50 0-88 40-88 88" fill="none" stroke="#14b8a6" stroke-width="8" stroke-linecap="round"/>
  <path d="M570 340c-45 0-78 35-78 78" fill="none" stroke="#14b8a6" stroke-width="8" stroke-linecap="round"/>
  <path d="M690 390c0-42 34-76 76-76" fill="none" stroke="#14b8a6" stroke-width="8" stroke-linecap="round"/>
  <rect x="110" y="100" width="175" height="95" rx="12" fill="#e2e8f0" stroke="#94a3b8" stroke-width="4"/>
  <rect x="110" y="325" width="170" height="135" rx="12" fill="#e2e8f0" stroke="#94a3b8" stroke-width="4"/>
  <rect x="385" y="100" width="130" height="92" rx="12" fill="#e2e8f0" stroke="#94a3b8" stroke-width="4"/>
  <rect x="625" y="105" width="150" height="78" rx="12" fill="#e2e8f0" stroke="#94a3b8" stroke-width="4"/>
  <rect x="610" y="430" width="72" height="72" rx="10" fill="#e2e8f0" stroke="#94a3b8" stroke-width="4"/>
  <circle cx="445" cy="392" r="54" fill="#e2e8f0" stroke="#94a3b8" stroke-width="4"/>
  <path d="M88 62h154M650 558h115M70 412v86M830 138v74" stroke="#38bdf8" stroke-width="8" stroke-linecap="round"/>
  <g fill="#64748b">
    <circle cx="206" cy="382" r="9"/>
    <circle cx="445" cy="392" r="9"/>
    <circle cx="684" cy="466" r="9"/>
    <circle cx="693" cy="144" r="9"/>
  </g>
</svg>
